<?xml version="1.0" encoding="UTF-8"?>
<svg width="2.6267in" height=".89333in" version="1.1" viewBox="0 0 788 268" xmlns="http://www.w3.org/2000/svg">
<g aria-label="Priscilla's">
<path d="m219.27 70.349q0 29.606-47.008 48.59-41.358 16.724-90.852 16.724-8.136 0-15.594-0.678-0.678 21.244-0.452 41.132 0.226 6.78-8.362 6.78-9.266 0-10.17-4.972-2.712-14.238-2.712-56.274 0-47.912 5.876-77.066-5.198 0.226-19.888 4.52-14.916 4.294-15.82 4.294-1.582 0-3.842-3.842-2.486-3.842-2.486-7.232 0-2.486 1.356-3.164 7.006-4.068 32.092-9.944 33.9-7.91 65.992-7.91 54.014 0 82.942 12.656t28.928 36.386zm-33.448 0q0-33.9-63.732-33.9-28.25 0-44.974 4.294-6.328 29.832-9.04 57.63-0.904 11.074-1.582 21.47 4.746 0.226 7.006 0.226 46.782-0.904 79.1-14.69 33.222-14.464 33.222-35.03z"/>
<path d="m288.65 141.09q0 4.294-1.356 7.006-13.786 27.12-30.058 27.12-8.362 0-12.882-4.746-4.52-4.972-4.52-11.978 0-6.102 7.91-23.73 1.356-3.164-2.034-3.39-10.622-0.904-15.142-2.712-1.808 6.554-7.458 17.402-6.554 12.43-9.944 12.43-2.938 0-2.938-9.04 0-0.226 4.52-8.362 5.424-9.492 7.684-16.724-7.684-6.328-7.684-15.594 0-3.842 2.26-7.684 2.486-3.842 6.328-3.842 10.622 0 10.622 15.142 4.294 3.164 21.696 3.164 13.786 0 13.786 11.074 0 3.842-5.198 16.272t-5.198 15.142q0 2.938 2.26 2.938 8.814 0 22.6-26.216 0.904-1.808 1.808-1.808 2.938 0 2.938 8.136z"/>
<path d="m309.22 77.581q-0.226 6.102-4.52 10.396-4.068 4.068-9.492 3.842-5.65-0.226-9.492-4.52-3.616-4.52-3.39-10.848t4.068-10.396q4.068-4.068 9.944-3.842 5.65 0.226 9.266 4.746 3.842 4.52 3.616 10.622zm26.668 63.506q0 4.294-1.356 7.006-13.786 27.12-30.284 27.12-21.696 0-21.696-37.742 0-22.6 1.808-25.538 1.808-3.164 9.04-3.164 7.91 0 9.492 2.938 0.452 1.13 0.226 12.204-0.452 18.306-0.452 18.306 0 18.758 5.876 18.758 8.814 0 22.6-26.216 0.904-1.808 1.808-1.808 2.712 0 2.938 8.136z"/>
<path d="m401.2 141.09q0 4.294-1.356 7.006-13.786 27.12-38.194 27.12-18.08 0-23.504-7.91-0.904-1.582-1.13-6.554 0-4.972 1.13-4.972 0.452 0 4.52 2.486 4.068 2.26 7.684 2.26 4.972 0 8.362-3.616t3.39-8.588q0-6.328-6.328-12.882-8.814-9.04-10.848-12.656-0.452 1.356-1.808 5.876-2.034 6.78-7.458 17.402-6.554 12.43-9.944 12.43-2.938 0-2.938-9.04 0-0.226 4.746-8.362 5.198-9.492 7.458-16.724 2.486-8.136 2.486-18.758 0-1.808 4.294-4.068 4.52-2.486 8.362-2.486 7.006 0 7.006 2.712 0 7.232 11.526 20.114 11.752 12.656 11.752 23.504 0 6.78-4.294 11.978 11.074-4.972 20.566-22.6 0.904-1.808 1.808-1.808 2.712 0 2.712 8.136z"/>
<path d="m471.71 141.09q0 4.294-1.356 7.006-13.786 27.12-38.194 27.12-19.888 0-30.736-11.752-8.814-9.266-8.814-21.47 0-13.786 10.622-23.504t25.538-9.718q16.498 0 23.73 14.012 0.904 1.808 0.904 2.712 0 2.486-6.554 6.328-2.26 1.356-3.616 1.356-1.13 0-3.616-4.068-3.164-5.424-10.848-5.424-6.102 0-10.622 5.424-4.294 5.198-4.294 12.882 0 8.814 5.424 13.786 4.746 4.52 12.882 4.52 12.43 0 21.018-7.006 7.006-5.65 14.012-18.532 0.904-1.808 1.808-1.808 2.712 0 2.712 8.136z"/>
<path d="m490.02 77.581q-0.226 6.102-4.52 10.396-4.068 4.068-9.492 3.842-5.65-0.226-9.492-4.52-3.616-4.52-3.39-10.848t4.068-10.396q4.068-4.068 9.944-3.842 5.65 0.226 9.266 4.746 3.842 4.52 3.616 10.622zm26.668 63.506q0 4.294-1.356 7.006-13.786 27.12-30.284 27.12-21.696 0-21.696-37.742 0-22.6 1.808-25.538 1.808-3.164 9.04-3.164 7.91 0 9.492 2.938 0.452 1.13 0.226 12.204-0.452 18.306-0.452 18.306 0 18.758 5.876 18.758 8.814 0 22.6-26.216 0.904-1.808 1.808-1.808 2.712 0 2.938 8.136z"/>
<path d="m555.11 141.09q0.226 4.294-1.13 7.006-14.012 27.12-30.284 27.12-16.95 0-18.984-40.228-1.13-24.408-1.13-51.754 0-41.81 2.712-47.912 0.904-1.356 4.52-2.938t5.198-1.582q5.876-0.226 7.91 3.842 1.13 2.938 1.13 28.928 0 10.396-0.904 35.934-1.13 26.894-1.13 38.42 0 3.39 0 8.136 0 14.916 4.972 14.916 8.588 0 22.6-26.216 0.904-1.808 1.808-1.808 2.712 0 2.712 8.136z"/>
<path d="m593.53 141.09q0.226 4.294-1.13 7.006-14.012 27.12-30.284 27.12-16.95 0-18.984-40.228-1.13-24.408-1.13-51.754 0-41.81 2.712-47.912 0.904-1.356 4.52-2.938t5.198-1.582q5.876-0.226 7.91 3.842 1.13 2.938 1.13 28.928 0 10.396-0.904 35.934-1.13 26.894-1.13 38.42 0 3.39 0 8.136 0 14.916 4.972 14.916 8.588 0 22.6-26.216 0.904-1.808 1.808-1.808 2.712 0 2.712 8.136z"/>
<path d="m687.09 141.09q0 4.294-1.356 7.006-13.786 27.12-30.284 27.12-9.944 0-15.142-9.04-10.622 9.04-23.73 9.04-14.916 0-25.538-9.718t-10.622-23.504 10.622-23.504 25.538-9.718q10.622 0 19.662 5.876 0.452-2.486 0.678-2.938 1.808-2.938 7.684-2.938 7.91 0 9.492 2.938 0.452 1.13 0.226 12.204-0.452 18.306-0.452 18.306 0 18.758 5.876 18.758 8.814 0 22.6-26.216 0.904-1.808 1.808-1.808 2.712 0 2.938 8.136zm-51.98 0.904q0-18.306-18.532-18.306-6.102 0-10.622 5.424-4.294 5.198-4.294 12.882 0 7.458 4.294 12.882 4.52 5.424 10.622 5.424 18.532 0 18.532-18.306z"/>
<path d="m702.68 31.251q0.678 1.808-1.356 21.922t-3.39 23.278-6.328 3.164q-4.746 0-6.554-3.164-1.356-2.486-1.356-16.95 0-26.442 2.26-29.154 2.26-2.938 8.136-2.938 7.006 0 8.588 3.842z"/>
<path d="m780.65 141.09q0 4.294-1.356 7.006-13.786 27.12-38.194 27.12-18.08 0-23.504-7.91-0.904-1.582-1.13-6.554 0-4.972 1.13-4.972 0.452 0 4.52 2.486 4.068 2.26 7.684 2.26 4.972 0 8.362-3.616t3.39-8.588q0-6.328-6.328-12.882-8.814-9.04-10.848-12.656-0.452 1.356-1.808 5.876-2.034 6.78-7.458 17.402-6.554 12.43-9.944 12.43-2.938 0-2.938-9.04 0-0.226 4.746-8.362 5.198-9.492 7.458-16.724 2.486-8.136 2.486-18.758 0-1.808 4.294-4.068 4.52-2.486 8.362-2.486 7.006 0 7.006 2.712 0 7.232 11.526 20.114 11.752 12.656 11.752 23.504 0 6.78-4.294 11.978 11.074-4.972 20.566-22.6 0.904-1.808 1.808-1.808 2.712 0 2.712 8.136z"/>
</g>
<g aria-label="PRESENTS">
<path d="m481.8 216.35c0-3.484-1.664-6.344-4.836-7.852-2.496-1.196-5.824-1.196-9.776-1.196-4.056 0-6.604 0-8.632-0.156 0.26 3.744 0.416 6.24 0.416 14.04 0 7.332-0.052 14.664-0.416 21.944 0.728-0.156 1.352-0.312 2.756-0.312 1.508 0 2.132 0.156 3.016 0.312-0.26-5.044-0.416-8.84-0.364-16.016 0.832 0.052 1.664 0.104 2.496 0.104 3.172 0 7.592-0.416 10.348-2.184 2.132-1.352 4.992-3.952 4.992-8.684zm-5.668 0.52c0 7.956-6.968 8.216-12.168 8.06-0.052-5.46-0.052-10.764 0-15.236 0.988-0.156 2.184-0.208 3.016-0.208 2.652 0 5.616 0.624 7.384 2.288 1.3 1.248 1.768 3.068 1.768 5.096z"/>
<path d="m523.99 242.51c-0.624-0.884-11.492-14.508-13.416-17.472 3.172-0.572 10.192-1.872 10.192-9.308 0-2.496-0.676-4.628-2.652-6.24-1.716-1.404-3.64-2.184-9.828-2.184-0.832 0-5.096 0.052-6.032 0.052-1.092 0-2.548 0-4.524-0.208 0.156 5.824 0.312 11.232 0.312 16.068 0 7.592-0.104 13.78-0.364 19.916 0.78-0.156 1.352-0.312 2.756-0.312 0.936 0 2.132 0.104 3.016 0.312-0.416-8.32-0.364-13.728-0.364-17.42h1.352c4.004 4.732 7.8 9.62 12.74 17.42 1.456-0.156 2.652-0.312 3.744-0.312 1.144 0 1.976 0.156 3.068 0.312zm-8.632-26.208c0 7.228-7.176 7.54-9.516 7.644-1.248 0.052-1.768 0.052-2.756-0.052 0-1.092-0.052-4.732-0.052-7.124 0-2.34 0-4.732 0.104-7.072 0.676-0.104 1.768-0.26 3.276-0.26 3.796 0 8.944 0.78 8.944 6.864z"/>
<path d="m544.54 222.85c-0.052-2.756-0.052-3.38-0.052-6.76 0-3.068 0-3.952 0.104-5.98 2.236-0.104 3.172-0.104 5.044-0.104 4.524 0 6.344 0.312 8.268 0.676-0.104-0.52-0.208-0.936-0.208-1.664 0-0.676 0.104-1.248 0.208-1.82-2.652 0.26-5.252 0.312-7.904 0.312-3.64 0-7.228 0-10.868-0.312 0.312 5.096 0.416 12.116 0.416 17.316 0 11.336-0.26 14.716-0.572 18.616 4.004-0.156 8.06-0.312 12.064-0.312 2.392 0 4.836 0 7.228 0.312-0.104-0.52-0.208-0.936-0.208-1.664s0.104-1.196 0.208-1.768c-6.136 0.624-10.348 0.624-13.676 0.624-0.052-1.404-0.156-5.356-0.156-8.06 0-2.236 0.052-4.576 0.104-6.812 1.3-0.052 2.808-0.104 4.212-0.104 2.236 0 5.356 0.156 8.06 0.52-0.052-0.572-0.208-1.04-0.208-1.612 0-0.728 0.104-1.196 0.208-1.768-4.056 0.468-8.164 0.416-12.272 0.364z"/>
<path d="m593.54 213.75c0.156-1.768 1.092-3.848 1.508-4.628-1.248-0.832-4.784-2.392-8.84-2.392-6.136 0-11.544 3.38-11.544 10.088 0 2.392 0.832 4.992 2.6 6.448 1.404 1.248 2.08 1.508 8.164 4.056 3.484 1.404 6.448 2.964 6.448 7.176 0 3.328-2.236 6.916-7.696 6.916-4.108 0-7.176-2.288-8.684-5.408h-0.676c-0.052 0.676-0.156 2.236-0.936 4.888 2.704 2.028 6.032 2.86 9.464 2.86 9.256 0 13.052-6.188 13.052-11.596 0-1.976-0.52-4.732-2.912-6.656-1.82-1.508-2.808-1.872-8.476-4.056-2.652-1.04-6.084-2.444-6.084-6.552 0-1.82 0.988-5.98 6.656-5.98 4.784 0 6.552 2.86 7.228 4.836z"/>
<path d="m619.46 222.85c-0.052-2.756-0.052-3.38-0.052-6.76 0-3.068 0-3.952 0.104-5.98 2.236-0.104 3.172-0.104 5.044-0.104 4.524 0 6.344 0.312 8.268 0.676-0.104-0.52-0.208-0.936-0.208-1.664 0-0.676 0.104-1.248 0.208-1.82-2.652 0.26-5.252 0.312-7.904 0.312-3.64 0-7.228 0-10.868-0.312 0.312 5.096 0.416 12.116 0.416 17.316 0 11.336-0.26 14.716-0.572 18.616 4.004-0.156 8.06-0.312 12.064-0.312 2.392 0 4.836 0 7.228 0.312-0.104-0.52-0.208-0.936-0.208-1.664s0.104-1.196 0.208-1.768c-6.136 0.624-10.348 0.624-13.676 0.624-0.052-1.404-0.156-5.356-0.156-8.06 0-2.236 0.052-4.576 0.104-6.812 1.3-0.052 2.808-0.104 4.212-0.104 2.236 0 5.356 0.156 8.06 0.52-0.052-0.572-0.208-1.04-0.208-1.612 0-0.728 0.104-1.196 0.208-1.768-4.056 0.468-8.164 0.416-12.272 0.364z"/>
<path d="m653.43 216.25 10.14 10.556c0.884 0.884 1.768 1.768 2.652 2.6 3.64 3.38 11.44 12.064 13.052 14.04 0.364-0.052 0.572-0.104 0.832-0.104 0.312 0 0.572 0.052 0.988 0.104-0.208-3.692-0.208-9.932-0.208-13.988 0-7.488 0-15.028 0.884-22.516-0.676 0.156-1.404 0.312-2.236 0.312s-1.456-0.156-2.028-0.312c0.676 7.54 0.676 12.116 0.676 25.376v1.924c-6.604-6.708-7.748-7.956-18.148-18.928-3.172-3.328-4.42-4.732-5.824-6.344l-1.716-2.028c-0.468 0.052-0.78 0.104-1.092 0.104-0.26 0-0.52-0.052-0.832-0.104v6.24c0 1.872 0.156 10.92 0.156 13 0 5.408-0.416 14.352-0.676 16.952 0.624-0.156 1.092-0.312 2.028-0.312s1.56 0.156 2.184 0.312c-0.468-8.06-0.676-11.024-0.832-23.608z"/>
<path d="m708.15 222.8c0 7.02-0.156 14.612-0.572 20.332 0.468-0.104 1.508-0.312 2.704-0.312 0.416 0 1.56 0.052 3.328 0.312-0.572-7.852-0.364-16.016-0.364-22.308 0-3.536 0.052-7.176 0.104-10.764 6.24 0.052 9.464 0.416 11.076 0.728-0.104-0.572-0.208-1.04-0.208-1.82s0.104-1.352 0.208-1.82c-3.328 0.312-8.84 0.312-13.936 0.312-4.108 0-10.764 0-13.988-0.312 0.104 0.52 0.208 0.988 0.208 1.82 0 0.78-0.104 1.248-0.208 1.82 2.288-0.468 6.084-0.676 11.544-0.728 0.052 3.536 0.104 8.008 0.104 12.74z"/>
<path d="m757.82 213.75c0.156-1.768 1.092-3.848 1.508-4.628-1.248-0.832-4.784-2.392-8.84-2.392-6.136 0-11.544 3.38-11.544 10.088 0 2.392 0.832 4.992 2.6 6.448 1.404 1.248 2.08 1.508 8.164 4.056 3.484 1.404 6.448 2.964 6.448 7.176 0 3.328-2.236 6.916-7.696 6.916-4.108 0-7.176-2.288-8.684-5.408h-0.676c-0.052 0.676-0.156 2.236-0.936 4.888 2.704 2.028 6.032 2.86 9.464 2.86 9.256 0 13.052-6.188 13.052-11.596 0-1.976-0.52-4.732-2.912-6.656-1.82-1.508-2.808-1.872-8.476-4.056-2.652-1.04-6.084-2.444-6.084-6.552 0-1.82 0.988-5.98 6.656-5.98 4.784 0 6.552 2.86 7.228 4.836z"/>
</g>
</svg>
