<?xml version="1.0" encoding="UTF-8"?>
<svg width="127.41mm" height="73.656mm" version="1.1" viewBox="0 0 127.41 73.656" xmlns="http://www.w3.org/2000/svg">
<g transform="translate(-33.789 -75.62)">
<g transform="translate(-8.9958 93.662)">
<g transform="translate(2.3813 -85.725)">
<path d="m167.73 119.06c-3.1232 17.841-29.576 23.16-63.236 22.17-34.594-1.0175-66.111-17.202-63.984-32.741 1.6577-12.113 25.391-19.899 59.775-20.486 36.46-0.62279 69.481 19.429 67.445 31.057z" fill="#a13938"/>
<path d="m164.46 120.33c-5.3588 14.116-27.277 19.307-57.436 18.615-33.439-0.76687-65.425-15.866-64.078-29.654 1.1548-11.82 24.813-20.553 59.775-18.709 36.115 1.9052 65.494 19.857 61.739 29.747z" fill="none" stroke="#fffffd" stroke-width=".641"/>
<g transform="translate(.14672 -.28762)">
<g transform="translate(4.1627 39.897)">
<path d="m115.86 28.206-2.2634 0.09147-1.8743 0.25115-1.8288 0.45734-1.6459 0.50281-2.7202 1.5544-2.035 1.7374-1.4857 1.9663-0.68575 1.1658-0.36587 1.2346-1.7601-0.06873-2.3776 0.18294-1.326 0.41134-1.0506 0.79013-0.51728 0.64647-0.84026 1.3581-0.35605 0.96996v1.4227l0.35605 1.3575 1.1312 1.5844 0.51728 0.64647 0.93793 0.71107 1.4547 0.71107 0.58188 0.32349 0.032 1.1638 0.16174 1.1317 0.58188 1.1963 1.0671 1.2609 1.2929 1.034 1.3581 0.87333 0.96997 0.42013 0.96945 0.16175 1.0671 0.16123 1.002 0.0326h1.0671l0.32298 0.84077 0.77618 0.90486 1.0666 0.87281 1.0671 0.51728 1.4872 0.64699 1.2609 0.29094 1.681 0.35553 1.4221 0.032 1.3906-0.35553 0.84025-0.38757 0.42013-0.35605 0.96997 0.71158 1.3255 0.74363 1.0992 0.45217 0.96997 0.22634 1.3255 0.0971 1.2284-0.032 1.617-0.12971 0.90485-0.29094 0.80822-0.51728 0.74362-0.54932 0.87282-0.61443 0.67903-1.0666 1.4226 0.16123 1.5839 0.0651 1.2935-0.16175 1.5193-0.42065 0.96996-0.51676 0.96997-0.80874 0.64647-1.034 0.42013-1.3255-0.0832-1.8609-0.45682-1.0971-0.77721-1.0516-1.0061-0.93741-1.1203-0.77721 0.45733-1.9203 0.22893-1.1886 0.0682-2.2174-0.3886-1.7606-0.73123-1.8516-1.0061-1.5317-0.93689-1.3715-1.0749-1.3488-1.2573-1.3488-1.1426-1.0971-1.2346-0.89194-1.943-1.0744-2.606-1.1431-2.5606-0.75396-2.0345-0.41186-1.8976-0.09147zm2.5817 1.3617 2.1446 0.14676 2.2066 0.4992 2.1761 0.67851 2.2831 1.0278 1.7983 1.1607 1.1431 0.8015 1.0578 0.79323 1.1638 1.1482 0.99477 1.2128 0.99684 1.3627 0.80202 1.5069 0.67696 1.6655 0.35966 1.5829-0.0636 1.9942-0.34054 1.7803-0.42323 1.6624 0.90743 0.56999 0.73691 0.64854 0.91364 0.6873 0.68161 0.92242 0.46509 1.6087-0.19534 1.386-0.7276 1.0594-0.89762 0.72709-1.2211 0.46509-1.4066 0.31368-1.3265-0.0486-1.4661-0.18759-1.3172-0.5333-0.49868 1.218-0.48473 0.74621-0.68833 0.55914-0.87746 0.46509-1.032 0.45578-1.5612 0.37466-1.202-0.0357-1.0976-0.21652-1.0268-0.46199-0.95291-0.47181-0.90382-0.6041-0.89762-0.89813-0.77722 0.57826-0.77823 0.34933-1.2868 0.31988-1.3167 0.10025-1.4268-0.19069-1.2966-0.52038-1.3767-0.58136-0.92242-0.65939-0.66456-0.65577-0.65371-1.0728-0.4284-1.079-1.311 0.25838-0.92759-0.0289-0.92294 0.0486-0.96222-0.0806-0.89813-0.24856-1.2568-0.78496-1.1968-0.93069-0.72915-1.0692-0.47388-1.0113-0.0853-1.1467 0.22892-1.4991-1.1855-0.16175-1.2821-0.57516-0.73845-0.57464-0.93121-0.71107-0.7891-1.1012-0.32918-1.2211v-1.2795l0.32918-0.8723 0.77825-1.2211 0.73742-0.58136 0.90795-0.51676 1.0335-0.24081 1.8128-0.03514 1.7586 0.1912 0.59738-1.6924 0.63459-1.0485 1.3756-1.7679 1.8836-1.5627 2.5182-1.3978 1.588-0.64647 1.5637-0.41134 1.7999-0.29042 2.095-0.08217z" fill="#994454" stroke="#9b3f4f" stroke-width=".26458px"/>
<path d="m96.393 39.2-0.73746 0.58151-0.77808 1.2212-0.32919 0.87226v1.2793l0.32919 1.2212 0.78878 1.1014 0.93144 0.71082 0.73855 0.575 1.282 0.575 1.1852 0.16144-0.22873 1.4993 0.085 1.147 0.47402 1.0111 0.72893 1.0693 1.1971 0.93041 1.2569 0.78504 0.89781 0.24866 0.96244 0.0807 0.9229-0.0486 0.92772 0.0291 1.3109-0.25863 0.42859 1.0792 0.65357 1.0727 0.66427 0.65571 0.9229 0.65918 1.3766 0.5815 1.2964 0.52032 1.4268 0.19051 1.3167-0.10028 1.2868-0.31982 0.77808-0.34891 0.77701-0.57846 0.89779 0.89829 0.90369 0.60406 0.95282 0.47172 1.0271 0.46216 1.0977 0.21652 1.2019 0.0356 1.561-0.37492 1.0319-0.45566 0.87747-0.46519 0.68831-0.55894 0.48471-0.74641 0.49913-1.2181 1.3168 0.53332 1.4664 0.18747 1.3264 0.0486 1.4065-0.31332 1.2211-0.4652 0.89779-0.72688 0.72786-1.0597 0.19505-1.3861-0.46485-1.6087-0.68186-0.92219-0.91345-0.68709-0.73711-0.64896-0.90759-0.5697 0.42324-1.6623 0.34092-1.7803 0.0635-1.9943-0.35973-1.5831-0.67717-1.6653-0.80177-1.5068-0.99692-1.3629-0.99457-1.213-1.1639-1.1483-1.058-0.79287-1.1427-0.80181-1.7987-1.1603-2.283-1.028-2.176-0.67846-2.2066-0.49938-2.1443-0.1469-2.4053 0.06764-2.095 0.08224-1.7999 0.29081-1.5636 0.41119-1.5883 0.64628-2.5182 1.398-1.8834 1.5625-1.3755 1.7681-0.63483 1.0485-0.59722 1.6921-1.7587-0.191-1.8128 0.03516-1.0334 0.24075z" fill="#ce7088" stroke="#993f4e" stroke-width=".241"/>
</g>
<g transform="translate(-.20968 -.070138)">
<path d="m115.4 72.478s1.8691-0.27908 2.8112-0.33073c1.4531-0.07966 2.9168-0.10311 4.3656 0.03307 1.3499 0.12687 2.701 0.34524 4.0018 0.7276 1.2875 0.37847 2.5391 0.9017 3.7207 1.5379 1.2021 0.64721 2.3509 1.413 3.39 2.2986 0.42569 0.36281 1.1499 1.222 1.1499 1.222s0.58285-0.19174 0.88411-0.18792c0.41371 0.0053 1.2072 0.2888 1.2072 0.2888s-0.68187-1.0292-1.0914-1.4883c-0.66994-0.75095-1.4143-1.442-2.2159-2.0505-0.91264-0.6928-1.8909-1.3132-2.927-1.8025-1.4596-0.68926-2.9981-1.2527-4.5806-1.571-1.4623-0.29411-2.9744-0.3562-4.4648-0.29766-1.219 0.04789-2.4455 0.20462-3.6215 0.52917-0.91475 0.25244-2.6293 1.0914-2.6293 1.0914z" fill="#d7d7d7"/>
<path d="m138.19 82.369c-0.0525-0.48805-0.0286-0.97419-0.18372-1.1476 0.0358 0.17073-0.0687 0.72605-0.24333 0.89911-0.0678 0.06723-0.45871 0.04404-0.45871 0.04404 0.20947 1.6215 0.0707 2.5916 0.0817 3.9352 0.30608-0.61705 0.274-0.6326 0.37977-0.96011 0.11218-0.34736 0.18734-0.70576 0.26891-1.0616 0.0598-0.26091 0.13679-0.65186 0.14939-0.98805 9e-3 -0.27559 0.0244-0.42494 6e-3 -0.72111z" fill="#d7d7d7"/>
<g transform="translate(1.1375e-7 -.066146)" fill="#302957">
<path d="m114.17 82.862c-0.0271 0.42915 0.60324 1.0118 1.0059 1.0516 0.78537 0.07766 2.1386-0.14532 2.7432-0.32004 0.16384-0.04734-0.10059-1.0159-0.43434-1.0744-0.22686-0.03976-1.5137 0.14516-1.6357 0.02967-0.1685-0.15942 8e-3 -0.96026 0.10409-1.2641 0.0827-0.15309 1.7141-0.02251 2.0803-0.09144 0.25761-0.04849-0.1392-0.89418-0.20315-1.0988-0.0814-0.26036-1.6094 0.11424-1.5071-0.18427l0.53229-1.9448c0.20178-0.21835 1.8193 0.06845 2.1659-0.0824 0.18746-0.08158-0.10936-1.2933-0.28506-1.2842-1.1966-0.01828-3.64-0.03294-3.6884 0.11099-0.4806 1.4301-0.7539 4.1907-0.87786 6.1522z"/>
<path d="m126.46 93.463c-0.0271 0.42915 0.60324 1.0118 1.0059 1.0516 0.78537 0.07766 2.1386-0.14532 2.7432-0.32004 0.16384-0.04734-0.10059-1.0159-0.43434-1.0744-0.22686-0.03976-1.5137 0.14516-1.6357 0.02967-0.1685-0.15942 8e-3 -0.96026 0.10409-1.2641 0.0827-0.15309 1.7141-0.02251 2.0803-0.09144 0.25761-0.04849-0.1392-0.89418-0.20315-1.0988-0.0814-0.26036-1.6094 0.11424-1.5071-0.18427l0.53229-1.9448c0.20178-0.21835 1.8193 0.06845 2.1659-0.0824 0.18746-0.08158-0.10936-1.2933-0.28506-1.2842-1.1966-0.01828-3.64-0.03294-3.6884 0.11099-0.4806 1.4301-0.7539 4.1907-0.87786 6.1522z"/>
<path d="m125.39 83.913c-0.0271 0.42915 0.60324 1.0118 1.0059 1.0516 0.78537 0.07766 2.1386-0.14532 2.7432-0.32004 0.16384-0.04734-0.10059-1.0159-0.43434-1.0744-0.22686-0.03976-1.5137 0.14516-1.6357 0.02967-0.1685-0.15942 8e-3 -0.96026 0.10409-1.2641 0.0827-0.15309 1.7141-0.02251 2.0803-0.09144 0.25761-0.04849-0.1392-0.89418-0.20315-1.0988-0.0814-0.26036-1.6094 0.11424-1.5071-0.18427l0.53229-1.9448c0.20178-0.21835 1.8193 0.06845 2.1659-0.0824 0.18746-0.08158-0.10936-1.2933-0.28506-1.2842-1.1966-0.01828-3.64-0.03294-3.6884 0.11099-0.4806 1.4301-0.7539 4.1907-0.87786 6.1522z"/>
<path d="m108.77 76.457c-3e-3 0.03856-0.29911 4.1323-0.67444 6.3991-0.0253 0.1528 0.19429 0.39322 1.1315 0.61426 0.16956 0.0461 0.4422-1.4577 0.58193-2.1948 0.44722 0.0054 0.91869-0.07004 1.3659-0.06465 0.084-0.0126-0.0799 1.6229-0.10515 1.9523-0.0197 0.25796 1.1793 0.62438 1.2285 0.46878 0.56577-1.7901 0.81776-4.8347 1.7619-6.6841 0.13689-0.26813-1.3524-1.1945-1.5356-0.86481-0.24318 0.4376-1.0669 3.9406-1.0669 3.9406-0.48269-0.01238-1.0482 0.0293-1.4629 0.03233 0.0297-1.0101 0.55297-2.6599 0.5415-3.4718-0.0534-0.13868-1.6939-1.0853-1.7295-0.61426z"/>
<path d="m121.18 87.025c-3e-3 0.03856-0.29911 4.1323-0.67444 6.3991-0.0253 0.1528 0.19429 0.39322 1.1315 0.61426 0.16956 0.0461 0.4422-1.4577 0.58193-2.1948 0.44722 0.0054 0.91869-0.07004 1.3659-0.06465 0.084-0.0126-0.0799 1.6229-0.10515 1.9523-0.0197 0.25796 1.1793 0.62438 1.2285 0.46878 0.56577-1.7901 0.81776-4.8347 1.7619-6.6841 0.13689-0.26813-1.3524-1.1945-1.5356-0.86481-0.24318 0.4376-1.0669 3.9406-1.0669 3.9406-0.48269-0.01238-1.0482 0.0293-1.4629 0.03233 0.0297-1.0101 0.55297-2.6599 0.5415-3.4718-0.0534-0.13868-1.6939-1.0853-1.7295-0.61426z"/>
<path d="m122.48 76.908c-0.18964 0.0022-0.3796 0.01976-0.56689 0.04599-0.27889 0.03906-0.55353 0.1113-0.81959 0.2036-0.2396 0.08312-0.48131 0.17478-0.6935 0.31368-0.17452 0.11424-0.42637 0.22115-0.46457 0.41961-0.1249 0.64832-0.32143 2.0841-0.32143 2.0841l-0.4501 4.0809s1.1817 0.54717 1.327 0.05839c0.11306-0.38019 0.25735-1.5028 0.25735-1.5028h0.43253l1.8418 2.0138c0.19194 0.08728 1.2519 0.01597 1.1999-0.13642-0.4996-0.7646-1.3788-1.6398-1.758-2.4634 0.13291-0.22005 0.63138-0.40476 0.93018-0.56224 0.28532-0.15037 0.57071-0.30917 0.8108-0.524 0.26662-0.23858 0.53737-0.49911 0.68782-0.82372 0.0976-0.21073 0.11489-0.45458 0.11988-0.68678 6e-3 -0.25643-0.0198-0.51836-0.0961-0.76326-0.0813-0.26115-0.22201-0.5038-0.37776-0.72864-0.12895-0.18614-0.28033-0.36046-0.45475-0.50488-0.16711-0.13836-0.35604-0.25458-0.55656-0.33745-0.22432-0.09272-0.46596-0.14742-0.70745-0.17208-0.11288-0.01153-0.22676-0.01577-0.34054-0.01447zm-0.0879 1.5937c0.37475-0.0031 0.79613 0.07577 0.95188 0.3483 0.12374 0.21658 0.11932 0.31214 0.10542 0.5612-0.0321 0.57315-0.90266 1.1637-1.5317 1.2454-0.24642 0.032-0.67231-0.02946-0.67231-0.02946 0.19077-0.72836 0.29507-1.2622 0.47335-1.9937 0.0105-0.05397 0.3213-0.12891 0.67335-0.13178z"/>
<path d="m131.95 76.739c-0.21924 0.25093-0.87938 2.247-1.2161 3.0051-0.0559 0.12587 1.0818 0.29992 1.2278 0.08186 0.36158-0.5403 0.71671-1.4252 0.92375-1.8592 0.24375-0.51089-0.70217-1.4948-0.93544-1.2278z"/>
<path d="m137.65 82.252c0.39367-0.14156 0.33421-0.777 0.39687-1.1906 0.0785-0.51786 0.0949-1.0631-0.0331-1.571-0.068-0.27013-0.20119-0.53083-0.38035-0.74414-0.27084-0.32248-0.62128-0.59562-1.0087-0.76068-0.28763-0.12254-0.61388-0.16626-0.92604-0.14883-0.30844 0.01723-0.63724 0.07474-0.89297 0.24805-0.64796 0.43912-1.169 1.1279-1.4221 1.8686-0.21751 0.63636-0.42156 1.5097-0.0165 2.0174 0.852 1.068 2.5751 1.9122 2.745 2.497 0.10927 0.37596-0.80074 0.1256-1.1906 0.04961-0.45761-0.08919-1.2733-0.57878-1.2733-0.57878s-0.41586-0.3611-0.71107 0.09922c-0.10684 0.16658 0.19844 0.56224 0.19844 0.56224l0.42995 0.39687s0.95133 0.659 1.4221 0.7276c0.45939 0.06694 0.96129 0.05931 1.3725-0.01654 0.5068-0.09347 0.77618-0.30997 0.97564-0.64492 0.16137-0.27099 0.21118-0.71072 0.0827-0.94258-0.5526-0.99692-1.721-1.5146-2.2324-2.282-0.19873-0.29818-0.0994-0.73581 0.0165-1.0749 0.13374-0.39118 0.35283-0.85883 0.74414-0.99219 0.98105-0.33433 0.22798 1.3289 0.64502 1.819 0.27652 0.32496 0.66679 0.80222 1.0582 0.66145z"/>
<path d="m114.7 86.425c-0.1727 0.08931 0.24461 1.1375 0.59634 1.2395 0.38788 0.11241 1.2929-0.01885 1.2512 0.11693 0.19836 0.04469-0.69618 4.2472-0.5028 5.4373 0.0219 0.13476 1.268 0.63094 1.2979 0.45603 0.15375-0.89886 1.0517-5.9907 1.1225-5.9868 0.0596-0.19995 2.0714 0.0098 1.906-0.28063-0.19679-0.34542-0.34547-1.2426-0.59635-1.2161-1.8106 0.05756-3.17 0.05992-5.0748 0.23386z"/>
</g>
</g>
</g>
</g>
<path d="m69.586-0.10114c-1.8338 0.07075-3.7576 0.21518-5.5785 0.44338-2.0085 0.25171-3.9593 0.57527-5.8808 1.2118-1.208 0.40018-2.4025 0.87098-3.5207 1.4785-0.71307 0.38738-1.7576 1.0672-2.3291 1.6433-0.60068 0.60555-1.0324 1.3918-1.31 2.1983-0.24291 0.70581-0.20786 1.4757-0.04909 2.205 0.0819 0.37625 0.34152 0.85501 0.5917 1.1477 0.52792 0.61769 1.2891 1.1623 1.9467 1.6397 0.90011 0.65347 1.7858 1.0143 2.7869 1.4991 1.2055 0.58376 2.5823 1.0147 3.8478 1.4531 2.2432 0.77721 4.4833 1.4653 6.7489 2.1745 2.1391 0.66967 4.3007 1.5355 6.4477 2.1797 2.6154 0.78472 5.2004 1.4546 7.7918 2.3151 1.7041 0.56588 3.4124 1.1537 5.0514 1.8872 1.0949 0.49002 2.0433 0.92099 2.9822 1.6676 0.48444 0.38522 0.86595 0.59728 1.0506 1.188 0.1076 0.34428 0.04139 0.56194-0.18294 0.84439-0.30819 0.38805-0.98439 0.37412-1.4697 0.47439-1.1863 0.24515-1.9834 0.1506-3.1946 0.1416-1.2753-9e-3 -2.5291-0.11167-3.7956-0.26149-1.6598-0.19634-3.1823-0.36053-4.8255-0.66559-1.8131-0.33659-3.5897-0.79157-5.3692-1.2754-1.7556-0.4773-3.5109-1.0611-5.208-1.7167-1.6273-0.62863-3.0124-1.0689-4.5062-1.9699-0.7277-0.43894-1.5725-0.7649-2.066-1.4568-0.1675-0.23481-0.28968-0.58549-0.20927-0.86249 0.11808-0.40678 1.0027-0.55985 1.2501-0.62838 0.75554-0.20932 1.0747-0.17614 1.7875-0.3793 0.6592-0.1879 1.0544-0.1532 1.5183-0.65784 0.22146-0.2409 0.12616-0.98066 0.01756-1.2893-0.1196-0.33994-0.50664-0.50919-0.83897-0.6269-0.35833-0.12692-0.63023-0.22076-1.0036-0.29216-0.63923-0.12218-1.2794-0.222-1.9293-0.25709-0.65386-0.0354-1.3186-0.10602-1.9647 0-0.69816 0.11454-1.3989 0.32365-2.0112 0.678-0.62139 0.35958-1.2212 0.82538-1.6133 1.4268-0.30833 0.47293-0.47717 1.05-0.5147 1.6133-0.03263 0.48978-0.05277 1.5194 0.15813 1.9627 0.45592 0.95821 1.2869 1.7053 2.0815 2.4086 1.1317 1.0016 2.4302 1.8174 3.7651 2.5259 1.6865 0.89515 3.5074 1.5181 5.3087 2.1513 1.5124 0.53162 3.1627 0.8473 4.7062 1.2805 1.9242 0.54012 3.8443 1.1068 5.7996 1.5203 2.1478 0.45421 4.3139 0.86766 6.5014 1.0521 1.9964 0.16837 4.091 0.14867 6.0926 0.0636 1.009-0.0429 2.0354-0.0424 3.0169-0.28061 0.97206-0.2359 1.9834-0.65504 2.8494-1.1555 0.51443-0.29725 0.97033-0.79178 1.3699-1.2314 0.32856-0.3615 0.34536-0.59191 0.57206-0.86351 0.23115-0.27694 0.29854 0.17314 0.72605 0.59634 0.63634 0.62991 1.6238 1.3051 2.3278 1.5106 0.86391 0.25212 1.7353 0.42023 2.6195 0.52659 0.75136 0.0905 1.5121 0.12833 2.2681 0.0935 0.7621-0.0351 1.5196-0.15907 2.2686-0.30437 1.1826-0.22942 2.0955-0.6164 3.2324-1.202 0.54904-0.28281 1.3993-0.49221 1.9014-1.4584 0.05-0.0961 0.81066 0.99744 1.4611 1.6552 0.67264 0.68016 1.3481 1.1789 2.1513 1.5434 0.8134 0.36915 1.8328 0.87797 2.7132 1.0288 1.7294 0.2962 3.5333 0.32075 5.2383-0.0933 0.97577-0.23694 1.7758-0.84587 2.6662-1.31 0.87855-0.45794 1.4998-1.2455 1.8474-2.1048 0.10426-0.25769 0.58563 1.0503 0.91195 1.5904 0.84786 1.4032 1.6684 1.6193 2.6427 2.1514 0.75722 0.41356 1.5842 0.6572 2.4318 0.81855 1.2654 0.24087 2.668 0.24095 3.9522 0.14068 0.70727-0.0552 1.4164-0.19754 2.0815-0.44441 0.97462-0.36177 1.9488-0.94423 2.7596-1.7543 0.46556-0.4651 0.91633-1.8276 0.93569-1.4497-0.47827 1.8466-1.5205 7.9447-0.91237 10.758 0.1186 0.54864 1.0604 0.8909 1.5905 1.0756 1.0969 0.38236 2.6775 0.48859 3.7418 0.0231 0.48043-0.21012 1.3313-1.0002 1.4029-1.5197 0.22841-1.6566-0.0584-5.0517 0.23397-6.5715 0.0466-0.2422 1.309 0.97745 2.3383 1.1924 1.0172 0.21245 2.308 0.19478 3.3443 0.11678 1.043-0.0785 2.3702-0.56879 3.2978-1.0522 0.80727-0.42072 1.4574-1.1249 2.0112-1.8474 0.51331-0.66967 0.97783-1.4235 1.1689-2.2453 0.2278-0.97974 0.0919-2.0236-0.0698-3.0164-0.16131-0.9905-0.4214-1.9888-0.88883-2.8768-0.53248-1.0116-1.609-2.3634-2.4087-3.1804-0.69332-0.70825-1.5789-1.303-2.4672-1.7424-0.89662-0.44349-1.4344-0.64358-2.4322-0.71308-0.78854-0.05493-1.0046-0.10508-2.6077 0.11678-0.37354 0.05169 0.0494-0.64355-0.11669-0.98209-0.19547-0.3985-0.69577-0.66223-1.1228-0.78323-0.84013-0.23807-1.7596-0.20225-2.619-0.04703-0.81625 0.14744-1.6161 0.46636-2.3156 0.91209-0.41677 0.26556-0.88991 0.97992-1.0323 1.3472-0.44642 1.1513 0.18901 3.4743-0.12491 2.6399-0.1731-0.46007-0.46716-1.3742-1.1084-1.9203-0.69614-0.5928-1.4993-1.3781-2.5626-1.725-0.81135-0.2647-1.7726-0.73236-2.6128-0.88212-1.169-0.20836-2.364-0.25701-3.5378-0.077-0.95871 0.14703-1.815 0.65902-2.6551 1.1436-0.5887 0.33953-1.0592 0.69299-1.6108 1.3369-0.435 0.50786-0.9862 1.428-1.0771 1.2876-0.31862-0.4922-0.43998-0.68699-0.78199-1.0825-0.42476-0.49124-0.77652-0.92515-1.3069-1.326-0.79567-0.60139-1.578-1.2338-2.4902-1.637-1.0019-0.44285-2.0696-0.78381-3.1574-0.91209-0.99976-0.11789-2.1269-0.11529-3.1104 0.09963-0.85418 0.18666-1.7016 0.50168-2.4319 0.98237-0.91628 0.60306-1.8055 1.5472-2.4616 2.4262-0.51323 0.68751-0.8678 1.5056-1.1341 2.3212-0.24431 0.74826-0.26479 1.3847-0.63165 2.0811-0.51176 0.97149-1.5403 1.5806-2.4319 2.2216-0.92645 0.66605-1.5486 1.2976-2.6545 1.5785-0.84625 0.21495-1.2191 0.17525-2.0694 0.0937-0.49976-0.0479-1.2898-0.28265-1.6722-0.60797-0.43485-0.36994-0.77565-1.1274-0.94729-1.672-0.35857-1.1375-0.18306-2.0038 0.0117-3.1805 0.22394-1.353 0.57535-2.0813 1.2361-3.2559 0.32071-0.57009 0.4551-0.84754 0.88042-1.3748 0.20375-0.2526 0.67128-0.77047 0.94693-0.66662 0.19423 0.07318 0.34336 0.45816 0.28083 0.86538-0.17489 1.0518-0.26748 1.4338-0.49241 2.2683-0.25354 0.94066-0.66844 2.1716-0.4897 3.1339 0.0565 0.30397 0.64097 0.78651 0.91174 0.93575 0.55316 0.30489 1.2704 0.14391 1.8945 0.04651 0.58704-0.09157 1.1882-0.25649 1.6836-0.58446 0.55224-0.36559 1.2613-0.76903 1.5437-1.3681 0.3888-0.82456 0.52606-2.4805 0.25722-3.3211-0.25132-0.78578-0.72307-1.7104-1.2276-2.3032-0.57198-0.67213-1.1801-1.331-1.9412-1.7778-0.79569-0.46711-1.7986-0.70426-2.7126-0.83014-0.66454-0.0915-1.4977-0.17787-2.1632-0.09367-0.90299 0.11422-1.9018 0.3477-2.713 0.76035-0.87119 0.44313-1.5493 1.175-2.3388 1.8707-0.89094 0.78507-1.436 1.9806-2.0459 3.3444-0.52578 1.1757-0.33303 3.0763-0.70191 2.6778-0.46738-0.50497-1.6581-1.4813-2.786-2.0963-1.7354-0.94618-3.5445-1.7998-5.3914-2.5037-2.0662-0.7875-4.1564-1.5157-6.2658-2.1792-4.5507-1.4313-9.2451-2.3929-13.753-3.9548-2.4593-0.85215-5.0558-0.91114-6.9603-2.6851-0.2092-0.19486-0.36869-0.27293-0.3328-0.55656 0.05903-0.4664 0.31468-0.55976 0.68885-0.84439 0.63568-0.48358 1.6875-0.76958 2.4479-1.0139 1.6623-0.53405 3.2296-0.66512 4.963-0.87436 2.9991-0.36204 5.8474-0.47612 8.8682-0.48472 2.8873-0.0083 5.6989-0.0013 8.5705 0.29869 1.8227 0.19049 3.6264 0.55657 5.4255 0.90537 0.90241 0.17495 1.4102 0.17555 2.7239 0.55345 0.68142 0.19603 3.437 0.98546 2.8086 1.0868-0.32535 0.05244-1.1961 0.09205-2.1037 0.25425-0.43061 0.07695-1.0891 0.389-1.4097 0.70848-0.15488 0.15435-0.60596 0.78992-0.6041 1.1121 0.0021 0.36818 0.42997 1.1157 0.62219 1.2361 0.86296 0.54065 2.0665 0.72136 3.0747 0.86403 1.4848 0.2101 3.5943 0.22737 4.9863-0.33073 0.84211-0.33765 1.7956-1.4779 2.2138-2.2831 0.32829-0.63193 0.12792-1.6895-0.061-2.3761-0.2192-0.79685-1.0621-1.613-1.6815-2.1601-1.059-0.93524-2.4628-1.5715-3.7517-2.1503-1.4576-0.65444-3.0856-1.0028-4.6292-1.4154-2.6634-0.712-5.3504-1.1343-8.0884-1.4568-2.7991-0.32962-5.6244-0.33183-8.4424-0.38499-1.78 0.09165-3.7469 0.04953-5.3252 0.11008zm50.345 19.357c0.0215-5.29e-4 0.0432-5.29e-4 0.0646 5.3e-4v5.29e-4c0.41003 0.01823 0.78159 0.32226 1.0893 0.61237 0.46322 0.43666 0.81707 1.0173 1.0609 1.6237 0.31002 0.77096 0.42665 1.6284 0.47284 2.466 0.0567 1.0281 0.0936 2.114-0.24339 3.0789-0.19851 0.56832-0.49448 1.2017-1.0036 1.4702-0.36005 0.18982-0.83724 0.14391-1.2041-0.0305-0.66088-0.31419-1.1453-1.0056-1.4908-1.6846-0.34763-0.68321-0.44555-1.493-0.51625-2.267-0.0846-0.92574-0.0697-1.8789 0.11472-2.7879 0.14629-0.72089 0.29043-1.5263 0.77412-2.0526 0.22502-0.24484 0.5587-0.42097 0.8816-0.42943zm15.819 1.1534c0.0215-5.29e-4 0.0432-5.29e-4 0.0646 5.29e-4 0.41003 0.01823 0.78159 0.32277 1.0893 0.61288 0.46321 0.43666 0.81707 1.0173 1.0609 1.6237 0.31002 0.77097 0.42664 1.6284 0.47284 2.466 0.0567 1.0281 0.0936 2.1135-0.2434 3.0784-0.19851 0.56832-0.49449 1.2023-1.0036 1.4707-0.36004 0.18982-0.83724 0.14392-1.2041-0.0305-0.66089-0.31419-1.1454-1.0061-1.4909-1.6852-0.34763-0.68322-0.44555-1.493-0.51625-2.267-0.0846-0.92574-0.0697-1.8784 0.11473-2.7874 0.14628-0.72089 0.29041-1.5263 0.7741-2.0526 0.22503-0.24484 0.55871-0.42097 0.88161-0.42943zm16.58 1.5844c0.36815 0.04672 0.6815 0.35748 0.93845 0.65009 0.38676 0.44041 0.66509 1.0069 0.84232 1.5896 0.2253 0.7408 0.27032 1.5478 0.25322 2.3316-0.0209 0.96204-0.0644 1.9764-0.43564 2.851-0.21869 0.51514-0.52968 1.0844-1.0072 1.2976-0.33771 0.15077-0.76433 0.0728-1.0826-0.11627-0.57346-0.34063-0.96152-1.0197-1.2252-1.6774-0.26529-0.66176-0.29692-1.4235-0.30592-2.1497-0.0114-0.86867 0.0688-1.7554 0.29869-2.589 0.18234-0.66107 0.3686-1.4009 0.84129-1.8562 0.23457-0.22593 0.5753-0.37035 0.88263-0.33125z" fill="#f5f5f5" stroke="#302957" stroke-width="3.4" style="paint-order:stroke fill markers"/>
<g transform="translate(.68254 -88.125)" fill="#e6e6e6">
<g transform="rotate(4.043)" stroke-width=".265" aria-label="P     A     R     L    O     U    R">
<path d="m91.406 127.74q0.20743 0 0.31609-0.0938 0.1136-0.0988 0.1136-0.29633 0-0.18768-0.11853-0.28646-0.11359-0.10372-0.33584-0.10372-0.07902 0-0.13335 5e-3 -0.04939 0-0.10372 0.01v0.76553zm-0.25682 1.5854q-0.05433 0.0148-0.17286 0.0296-0.1136 0.0148-0.22719 0.0148-0.1136 0-0.2025-0.0198-0.08396-0.0148-0.14323-0.0593-0.05927-0.0444-0.0889-0.12347-0.02963-0.079-0.02963-0.20744v-2.3262q0-0.10372 0.05433-0.15805 0.05927-0.0593 0.15804-0.0938 0.16792-0.0593 0.3803-0.084 0.21731-0.0296 0.43462-0.0296 0.68157 0 1.0421 0.29139 0.36054 0.2914 0.36054 0.79023 0 0.242-0.07902 0.43956-0.07408 0.19261-0.22719 0.33584-0.14817 0.13829-0.3803 0.21731-0.22719 0.0741-0.52846 0.0741h-0.35066z"/>
<path d="m98.731 126.44q0.08396-0.0494 0.25188-0.0938 0.17286-0.0444 0.34572-0.0444 0.24694 0 0.43462 0.0741 0.19262 0.0691 0.24695 0.22225 0.0889 0.25682 0.19261 0.5976 0.10372 0.34078 0.20744 0.70626 0.10371 0.36054 0.20249 0.71614 0.0988 0.35066 0.17286 0.6223-0.0593 0.0692-0.1778 0.10866-0.11853 0.0445-0.28152 0.0445-0.11853 0-0.20249-0.0198-0.079-0.0198-0.13335-0.0593-0.04939-0.0395-0.08396-0.10371-0.02963-0.0642-0.05433-0.14817l-0.0889-0.34078h-0.89394q-0.03951 0.14816-0.07902 0.30621-0.03951 0.15804-0.07902 0.30621-0.06914 0.0247-0.14817 0.0395-0.07408 0.0198-0.18274 0.0198-0.25188 0-0.37536-0.084-0.11853-0.0889-0.11853-0.24201 0-0.0691 0.01976-0.13829 0.01976-0.0691 0.04445-0.16298 0.03457-0.13335 0.09384-0.33091 0.06421-0.19755 0.13829-0.42474 0.07408-0.23213 0.15804-0.47414 0.08396-0.242 0.15804-0.45437 0.07408-0.21731 0.13335-0.38524 0.06421-0.16792 0.09878-0.25682zm0.59267 0.63712q-0.06915 0.20743-0.15804 0.46425-0.08396 0.25189-0.1531 0.51365h0.61242q-0.06915-0.2667-0.14323-0.51859-0.06914-0.25682-0.12841-0.45931z"/>
<path d="m106.99 128.38v0.94826q-0.0543 0.0148-0.17286 0.0296-0.11359 0.0148-0.22719 0.0148-0.11359 0-0.20249-0.0198-0.084-0.0148-0.14323-0.0593-0.0543-0.0444-0.084-0.12347-0.0296-0.079-0.0296-0.20744v-2.3262q0-0.10372 0.0543-0.15805 0.0593-0.0593 0.15805-0.0938 0.16792-0.0593 0.39017-0.084 0.22225-0.0296 0.47413-0.0296 0.68157 0 1.0273 0.28646 0.34573 0.28645 0.34573 0.7754 0 0.30621-0.15805 0.52352-0.15804 0.21731-0.37535 0.33585 0.1778 0.242 0.35066 0.45438 0.17286 0.21237 0.27164 0.38523-0.0494 0.17286-0.18274 0.2667-0.12841 0.0889-0.2914 0.0889-0.10865 0-0.18768-0.0247-0.079-0.0247-0.13828-0.0691-0.0593-0.0444-0.10866-0.10866-0.0494-0.0642-0.0938-0.13828l-0.41487-0.66675zm0.31115-0.65688q0.18768 0 0.29634-0.0938 0.10865-0.0988 0.10865-0.28645 0-0.18768-0.12347-0.28152-0.11853-0.0988-0.38029-0.0988-0.0741 0-0.11854 5e-3 -0.0445 5e-3 -0.0988 0.0148v0.74083z"/>
<path d="m114.54 129.36q-0.21238 0-0.33585-0.12347t-0.12347-0.33584v-2.5534q0.0543-0.01 0.17286-0.0247 0.11853-0.0198 0.22719-0.0198 0.11359 0 0.19755 0.0198 0.0889 0.0148 0.14817 0.0593 0.0593 0.0444 0.0889 0.12348 0.0296 0.079 0.0296 0.20743v1.9509h1.131q0.0346 0.0543 0.0642 0.14817 0.0296 0.0889 0.0296 0.18768 0 0.19755-0.084 0.28151-0.084 0.079-0.22225 0.079z"/>
<path d="m120.41 127.84q0-0.38524 0.11854-0.68157 0.12347-0.29633 0.3309-0.49389 0.21238-0.20249 0.49389-0.30621 0.28646-0.10372 0.61736-0.10372 0.33091 0 0.61243 0.10372 0.28645 0.10372 0.49882 0.30621 0.21238 0.19756 0.33091 0.49389 0.12347 0.29633 0.12347 0.68157 0 0.38523-0.11853 0.6865-0.11854 0.29633-0.33091 0.49883-0.20743 0.19755-0.49389 0.30127-0.28645 0.10372-0.6223 0.10372-0.33584 0-0.6223-0.10372-0.28645-0.10865-0.49389-0.31115-0.20743-0.20249-0.32596-0.49883-0.11854-0.29633-0.11854-0.67662zm0.889 0q0 0.44943 0.18274 0.67168t0.48895 0.22225q0.31115 0 0.49389-0.22225t0.18274-0.67168q0-0.4445-0.18274-0.66675-0.1778-0.22225-0.48895-0.22225-0.30621 0-0.49389 0.22225-0.18274 0.21731-0.18274 0.66675z"/>
<path d="m131.62 128.24q0 0.2667-0.0938 0.48895-0.0889 0.21731-0.26176 0.37535-0.17286 0.15311-0.4198 0.23707-0.24695 0.084-0.5581 0.084t-0.55809-0.084q-0.24695-0.084-0.41981-0.23707-0.17286-0.15804-0.2667-0.37535-0.0889-0.22225-0.0889-0.48895v-1.8867q0.0543-0.01 0.17286-0.0247 0.11853-0.0198 0.22719-0.0198 0.11359 0 0.19756 0.0198 0.0889 0.0148 0.14816 0.0593 0.0593 0.0444 0.0889 0.12348 0.0296 0.079 0.0296 0.20743v1.5064q0 0.23707 0.12841 0.37042 0.13335 0.13335 0.34078 0.13335 0.21237 0 0.34078-0.13335 0.12842-0.13335 0.12842-0.37042v-1.8718q0.0543-0.01 0.17286-0.0247 0.11853-0.0198 0.22719-0.0198 0.11359 0 0.19755 0.0198 0.0889 0.0148 0.14817 0.0593 0.0593 0.0444 0.0889 0.12348 0.0296 0.079 0.0296 0.20743z"/>
<path d="m137.06 128.38v0.94826q-0.0543 0.0148-0.17286 0.0296-0.11359 0.0148-0.22719 0.0148-0.11359 0-0.20249-0.0198-0.084-0.0148-0.14323-0.0593-0.0543-0.0444-0.084-0.12347-0.0296-0.079-0.0296-0.20744v-2.3262q0-0.10372 0.0543-0.15805 0.0593-0.0593 0.15804-0.0938 0.16792-0.0593 0.39017-0.084 0.22225-0.0296 0.47414-0.0296 0.68156 0 1.0273 0.28646 0.34573 0.28645 0.34573 0.7754 0 0.30621-0.15805 0.52352-0.15804 0.21731-0.37535 0.33585 0.1778 0.242 0.35066 0.45438 0.17286 0.21237 0.27164 0.38523-0.0494 0.17286-0.18274 0.2667-0.12841 0.0889-0.2914 0.0889-0.10865 0-0.18767-0.0247-0.079-0.0247-0.13829-0.0691-0.0593-0.0444-0.10866-0.10866-0.0494-0.0642-0.0938-0.13828l-0.41486-0.66675zm0.31115-0.65688q0.18768 0 0.29634-0.0938 0.10865-0.0988 0.10865-0.28645 0-0.18768-0.12347-0.28152-0.11853-0.0988-0.38029-0.0988-0.0741 0-0.11854 5e-3 -0.0445 5e-3 -0.0988 0.0148v0.74083z"/>
</g>
<g transform="matrix(1.0479 .078526 -.07111 .94895 0 0)" stroke-width=".27804" aria-label="ICE CREAM">
<path d="m80.128 129.1q0 0.2032-0.0762 0.38735-0.06985 0.18415-0.2032 0.32385t-0.3175 0.2159q-0.1778 0.0825-0.3937 0.0825-0.22225 0-0.4064-0.0825-0.1778-0.0826-0.31115-0.22225-0.13335-0.1397-0.20955-0.3175-0.06985-0.18415-0.06985-0.38735v-6.1722q-0.0063-0.1651-0.0508-0.3302-0.0381-0.1651-0.0381-0.3175 0-0.0952 0.0254-0.17145 0.03175-0.0762 0.1016-0.127 0.0762-0.0571 0.2032-0.0825 0.127-0.0318 0.32385-0.0318 0.28575 0 0.5334 0.0444 0.254 0.0381 0.4445 0.1524 0.1905 0.10795 0.3048 0.3048 0.12065 0.1905 0.1397 0.50165z"/>
<path d="m86.986 124.56q-0.14605-0.13335-0.3048-0.26035-0.15875-0.13335-0.34925-0.23495-0.18415-0.1016-0.4064-0.15875-0.22225-0.0635-0.4953-0.0635-0.4445 0-0.83185 0.1778-0.38735 0.17145-0.67945 0.4699-0.28575 0.2921-0.4572 0.6858-0.1651 0.3937-0.1651 0.83185t0.1651 0.83185q0.17145 0.3937 0.46355 0.69215 0.2921 0.2921 0.67945 0.46355t0.8255 0.17145q0.31115 0 0.55245-0.0762 0.2413-0.0825 0.4445-0.20955 0.2032-0.127 0.3937-0.28575t0.4064-0.32385q0.127-0.0762 0.2794-0.1143t0.3048-0.0318q0.15875 0 0.3048 0.0572 0.1524 0.0508 0.27305 0.1651 0.3302 0.2794 0.3302 0.7112 0 0.1905-0.06985 0.37465-0.0635 0.1778-0.22225 0.33655-0.29845 0.3556-0.6223 0.6096-0.3175 0.254-0.67945 0.4191-0.36195 0.15875-0.78105 0.23495-0.4191 0.0825-0.9144 0.0825-0.85725 0-1.6066-0.32385t-1.3144-0.88265q-0.5588-0.56515-0.88265-1.3144t-0.32385-1.6066q0-0.56515 0.14605-1.0858 0.14605-0.52705 0.41275-0.98425 0.27305-0.46355 0.6477-0.8382 0.381-0.37465 0.8382-0.64135 0.4572-0.27305 0.98425-0.4191 0.52705-0.1524 1.0986-0.1524 0.46355 0 0.85725 0.0699t0.74295 0.2286q0.3556 0.1524 0.6731 0.3937t0.6223 0.5842q0.13335 0.1524 0.2032 0.3302 0.0762 0.17145 0.08255 0.37465 0.0127 0.1651-0.0635 0.3556t-0.2286 0.3429q-0.1143 0.10795-0.2667 0.18415t-0.32385 0.0889-0.36195-0.0445q-0.1905-0.0571-0.381-0.2159z"/>
<path d="m96.105 129.12q0 0.2159-0.08255 0.40005-0.0762 0.1778-0.2159 0.31115t-0.3302 0.20955q-0.18415 0.0762-0.3937 0.0762h-4.045q-0.2286 0-0.42545-0.0825-0.1905-0.0762-0.3302-0.2159-0.13335-0.1397-0.20955-0.3302-0.0762-0.19685-0.0762-0.42545v-6.1087q-0.0127-0.1651-0.05715-0.33655-0.0381-0.17145-0.0381-0.3302 0-0.0952 0.0254-0.17145 0.0254-0.0762 0.09525-0.127 0.0762-0.0571 0.19685-0.0889t0.31115-0.0318h4.5593q0.32385 0 0.53975 0.1397t0.32385 0.3556q0.1143 0.20955 0.1143 0.4572 0.0063 0.2413-0.1016 0.4572-0.10795 0.20955-0.32385 0.34925t-0.5461 0.1397h-3.1178v1.3144h2.3178q0.2286 0 0.42545 0.1143 0.19685 0.10795 0.32385 0.28575 0.13335 0.17145 0.1651 0.40005 0.0381 0.22225-0.05715 0.45085-0.10795 0.27305-0.33655 0.42545-0.22225 0.1524-0.5207 0.1524h-2.3178v1.2128h3.0988q0.2159 0 0.40005 0.0762 0.1905 0.0699 0.3302 0.2032 0.1397 0.127 0.2159 0.31115 0.08255 0.18415 0.08255 0.4064z"/>
<path d="m105.45 124.56q-0.14605-0.13335-0.3048-0.26035-0.15875-0.13335-0.34925-0.23495-0.18415-0.1016-0.4064-0.15875-0.22225-0.0635-0.4953-0.0635-0.4445 0-0.83185 0.1778-0.38735 0.17145-0.67945 0.4699-0.28575 0.2921-0.4572 0.6858-0.1651 0.3937-0.1651 0.83185t0.1651 0.83185q0.17145 0.3937 0.46355 0.69215 0.2921 0.2921 0.67945 0.46355t0.8255 0.17145q0.31115 0 0.55245-0.0762 0.2413-0.0825 0.4445-0.20955 0.2032-0.127 0.3937-0.28575t0.4064-0.32385q0.127-0.0762 0.2794-0.1143t0.3048-0.0318q0.15875 0 0.3048 0.0572 0.1524 0.0508 0.27305 0.1651 0.3302 0.2794 0.3302 0.7112 0 0.1905-0.0699 0.37465-0.0635 0.1778-0.22225 0.33655-0.29845 0.3556-0.6223 0.6096-0.3175 0.254-0.67945 0.4191-0.36195 0.15875-0.78105 0.23495-0.4191 0.0825-0.9144 0.0825-0.85725 0-1.6066-0.32385t-1.3144-0.88265q-0.5588-0.56515-0.88265-1.3144t-0.32385-1.6066q0-0.56515 0.14605-1.0858 0.14605-0.52705 0.41275-0.98425 0.27305-0.46355 0.6477-0.8382 0.381-0.37465 0.8382-0.64135 0.4572-0.27305 0.98425-0.4191 0.52705-0.1524 1.0986-0.1524 0.46355 0 0.85725 0.0699t0.74295 0.2286q0.3556 0.1524 0.6731 0.3937t0.6223 0.5842q0.13335 0.1524 0.2032 0.3302 0.0762 0.17145 0.0825 0.37465 0.0127 0.1651-0.0635 0.3556t-0.2286 0.3429q-0.1143 0.10795-0.2667 0.18415t-0.32385 0.0889-0.36195-0.0445q-0.1905-0.0571-0.381-0.2159z"/>
<path d="m113.02 126.55 1.5748 1.9876q0.13335 0.1524 0.18415 0.33655 0.0571 0.18415 0.0318 0.3683-0.0191 0.18415-0.1143 0.3556-0.0889 0.17145-0.254 0.29845t-0.34925 0.1778-0.3683 0.0254q-0.1778-0.019-0.3429-0.10795-0.1651-0.0952-0.2921-0.254l-1.6954-2.4511zm1.7462-1.6637q0 0.6477-0.2667 1.2002-0.2667 0.5461-0.71755 0.94615t-1.0414 0.62865q-0.59055 0.22225-1.2446 0.22225h-1.0541v1.2319q0 0.20955-0.0762 0.3937-0.0762 0.1778-0.20955 0.3175-0.13335 0.13335-0.3175 0.20955-0.1778 0.0762-0.38735 0.0762t-0.3937-0.0762-0.3175-0.20955q-0.13335-0.1397-0.20955-0.3175-0.0762-0.18415-0.0762-0.3937v-6.2548q-6e-3 -0.1651-0.0508-0.3302-0.0381-0.17145-0.0381-0.3175 0-0.0952 0.0254-0.17145 0.0317-0.0762 0.1016-0.127 0.0762-0.0571 0.2032-0.0825 0.127-0.0318 0.32385-0.0318h2.4765q0.65405 0 1.2446 0.2413 0.59055 0.23495 1.0414 0.65405 0.45085 0.41275 0.71755 0.9779 0.2667 0.5588 0.2667 1.2128zm-1.9494 0.0572q0-0.27305-0.1016-0.5207t-0.28575-0.4318q-0.1778-0.1905-0.4191-0.29845-0.2413-0.1143-0.51435-0.1143h-1.0922v2.5972h1.0922q0.27305 0 0.51435-0.0889t0.4191-0.24765q0.18415-0.1651 0.28575-0.3937t0.1016-0.50165z"/>
<path d="m122.05 129.12q0 0.2159-0.0825 0.40005-0.0762 0.1778-0.2159 0.31115t-0.3302 0.20955q-0.18415 0.0762-0.3937 0.0762h-4.045q-0.2286 0-0.42545-0.0825-0.1905-0.0762-0.3302-0.2159-0.13335-0.1397-0.20955-0.3302-0.0762-0.19685-0.0762-0.42545v-6.1087q-0.0127-0.1651-0.0572-0.33655-0.0381-0.17145-0.0381-0.3302 0-0.0952 0.0254-0.17145 0.0254-0.0762 0.0952-0.127 0.0762-0.0571 0.19685-0.0889t0.31115-0.0318h4.5593q0.32385 0 0.53975 0.1397t0.32385 0.3556q0.1143 0.20955 0.1143 0.4572 6e-3 0.2413-0.1016 0.4572-0.10795 0.20955-0.32385 0.34925t-0.5461 0.1397h-3.1178v1.3144h2.3178q0.2286 0 0.42545 0.1143 0.19685 0.10795 0.32385 0.28575 0.13335 0.17145 0.1651 0.40005 0.0381 0.22225-0.0571 0.45085-0.10795 0.27305-0.33655 0.42545-0.22225 0.1524-0.5207 0.1524h-2.3178v1.2128h3.0988q0.2159 0 0.40005 0.0762 0.1905 0.0699 0.3302 0.2032 0.1397 0.127 0.2159 0.31115 0.0825 0.18415 0.0825 0.4064z"/>
<path d="m126.11 121.87q0.1905 0 0.3429 0.0699t0.27305 0.1905q0.12065 0.12065 0.2159 0.27305 0.0953 0.1524 0.17145 0.3175l2.4511 6.0452q0.0317 0.0889 0.0445 0.18415 0.019 0.0953 0.0254 0.18415 0 0.2032-0.0825 0.38735t-0.24765 0.32385q-0.18415 0.18415-0.4191 0.2413-0.23495 0.0572-0.4699 6e-3 -0.2286-0.0508-0.42545-0.20955t-0.29845-0.4191l-0.3048-0.7493h-2.54l-0.31115 0.7493q-0.1397 0.32385-0.38735 0.50165-0.24765 0.17145-0.5715 0.15875-0.23495 0-0.4318-0.1016t-0.3302-0.2667q-0.127-0.1651-0.18415-0.381-0.0508-0.2159-6e-3 -0.4445 0.0318-0.10795 0.0635-0.2032 0.0381-0.1016 0.0825-0.20955l2.2924-5.6706q0.0381-0.10795 0.0571-0.22225 0.0191-0.1143 0.0445-0.22225t0.0762-0.2032q0.0508-0.0953 0.1524-0.1651 0.10795-0.0762 0.2794-0.12065 0.17145-0.0444 0.43815-0.0444zm-0.86995 5.3086h1.759l-0.8763-2.2606z"/>
<path d="m132.71 124.89q0 0.6858 0 1.2636 6e-3 0.5715 6e-3 1.0795t0 0.97155q6e-3 0.4572 6e-3 0.90805 0 0.20955-0.0762 0.3937-0.0762 0.1778-0.20955 0.31115t-0.3175 0.20955q-0.1778 0.0825-0.38735 0.0825t-0.3937-0.0825q-0.18415-0.0762-0.3175-0.20955t-0.20955-0.31115q-0.0762-0.18415-0.0762-0.3937 0-0.7239 0-1.505 6e-3 -0.78105 6e-3 -1.5748 0-0.8001 0-1.5812 0-0.7874-6e-3 -1.524 0-0.1651-0.0508-0.3175-0.0445-0.15875-0.0445-0.3302 0-0.0952 0.0254-0.17145 0.0254-0.0762 0.0953-0.127 0.0762-0.0571 0.2032-0.0889 0.13335-0.0318 0.33655-0.0318 0.254 0 0.42545 6e-3t0.29845 0.0444q0.13335 0.0318 0.2413 0.1016 0.10795 0.0699 0.2286 0.19685l2.3432 2.7368q0.69215-0.78105 1.1176-1.289t0.66675-0.8128 0.33655-0.4445q0.0952-0.14605 0.127-0.19685 0.0444-0.0699 0.1016-0.13335 0.0572-0.0635 0.1524-0.10795 0.0952-0.0508 0.2286-0.0762 0.1397-0.0254 0.34925-0.0254 0.28575 0 0.4699 0.0825 0.1905 0.0825 0.3048 0.22225 0.1143 0.13335 0.1651 0.31115 0.0572 0.1778 0.0762 0.3683 0.019 0.18415 0.0127 0.37465 0 0.18415 0 0.3429v5.5499q0 0.20955-0.0762 0.3937-0.0699 0.1778-0.2032 0.31115-0.13335 0.13335-0.3175 0.20955-0.1778 0.0825-0.3937 0.0825-0.14605 0-0.3175-0.0572t-0.3175-0.17145q-0.14605-0.12065-0.24765-0.31115-0.0952-0.1905-0.0952-0.4572v-4.2164l-1.3589 1.7399q-0.19685 0.23495-0.37465 0.3937-0.1778 0.1524-0.381 0.1524-0.10795 0-0.19685-0.0318-0.0825-0.0381-0.17145-0.10795-0.0825-0.0699-0.1778-0.17145-0.0889-0.1016-0.20955-0.23495z"/>
</g>
</g>
</g>
</g>
</svg>
